<mxfile host="app.diagrams.net" agent="Mozilla/5.0 (Windows NT 10.0; Win64; x64) AppleWebKit/537.36 (KHTML, like Gecko) Chrome/134.0.0.0 Safari/537.36" version="26.1.1">
  <diagram name="UseStaticFiles" id="c4acf3e9-155e-7222-9cf6-157b1a14988f">
    <mxGraphModel dx="1612" dy="786" grid="1" gridSize="10" guides="1" tooltips="1" connect="1" arrows="1" fold="1" page="1" pageScale="1" pageWidth="850" pageHeight="1100" background="none" math="0" shadow="0">
      <root>
        <mxCell id="0" />
        <mxCell id="1" parent="0" />
        <mxCell id="KufS4bMbeVtTv9MZIm-f-1" value="&lt;p style=&quot;margin:0px;margin-top:4px;text-align:center;&quot;&gt;&lt;span style=&quot;color: rgb(0, 64, 133); background-color: transparent; text-align: left;&quot;&gt;DefaultFilesExtensions&lt;/span&gt;&lt;/p&gt;&lt;hr size=&quot;1&quot; style=&quot;border-style:solid;&quot;&gt;&lt;p style=&quot;margin:0px;margin-left:4px;&quot;&gt;&lt;span style=&quot;color: rgb(25, 25, 112); font-weight: bold;&quot;&gt;UseDefaultFiles(&lt;/span&gt;&lt;span style=&quot;background-color: transparent; color: rgb(25, 25, 112); font-weight: bold;&quot;&gt;):&amp;nbsp;&lt;/span&gt;&lt;span style=&quot;background-color: transparent; color: rgb(0, 64, 133);&quot;&gt;IApplicationBuilder&lt;/span&gt;&lt;/p&gt;&lt;p style=&quot;margin:0px;margin-left:4px;&quot;&gt;&lt;span style=&quot;background-color: transparent; color: rgb(0, 64, 133);&quot;&gt;&lt;br&gt;&lt;/span&gt;&lt;/p&gt;&lt;p style=&quot;margin:0px;margin-left:4px;&quot;&gt;&lt;span style=&quot;color: rgb(25, 25, 112); font-weight: bold;&quot;&gt;UseDefaultFiles(&lt;/span&gt;&lt;/p&gt;&lt;p style=&quot;margin:0px;margin-left:4px;&quot;&gt;&lt;span style=&quot;color: rgb(255, 0, 0);&quot;&gt;&lt;span style=&quot;white-space: pre;&quot;&gt;&#x9;&lt;/span&gt;string&lt;/span&gt; requestPath&lt;span style=&quot;color: rgb(25, 25, 112); font-weight: bold;&quot;&gt;&lt;/span&gt;&lt;/p&gt;&lt;p style=&quot;margin:0px;margin-left:4px;&quot;&gt;&lt;span style=&quot;color: rgb(25, 25, 112); font-weight: bold;&quot;&gt;):&amp;nbsp;&lt;/span&gt;&lt;span style=&quot;background-color: transparent; color: rgb(0, 64, 133);&quot;&gt;&lt;/span&gt;&lt;span style=&quot;color: rgb(0, 64, 133); background-color: transparent;&quot;&gt;IApplicationBuilder&lt;/span&gt;&lt;/p&gt;&lt;p style=&quot;margin:0px;margin-left:4px;&quot;&gt;&lt;span style=&quot;color: rgb(0, 64, 133); background-color: transparent;&quot;&gt;&lt;br&gt;&lt;/span&gt;&lt;/p&gt;&lt;p style=&quot;margin:0px;margin-left:4px;&quot;&gt;&lt;span style=&quot;color: rgb(25, 25, 112); font-weight: bold;&quot;&gt;UseDefaultFiles(&lt;/span&gt;&lt;/p&gt;&lt;p style=&quot;margin:0px;margin-left:4px;&quot;&gt;&lt;span style=&quot;color: rgb(0, 64, 133);&quot;&gt;&lt;span style=&quot;white-space: pre;&quot;&gt;&#x9;&lt;/span&gt;DefaultFilesOptions&lt;/span&gt; options&lt;span style=&quot;color: rgb(25, 25, 112); font-weight: bold;&quot;&gt;&lt;/span&gt;&lt;/p&gt;&lt;p style=&quot;margin:0px;margin-left:4px;&quot;&gt;&lt;span style=&quot;color: rgb(25, 25, 112); font-weight: bold;&quot;&gt;):&amp;nbsp;&lt;/span&gt;&lt;span style=&quot;color: rgb(0, 64, 133); background-color: transparent;&quot;&gt;&lt;/span&gt;&lt;span style=&quot;color: rgb(0, 64, 133); background-color: transparent;&quot;&gt;IApplicationBuilder&lt;/span&gt;&lt;/p&gt;" style="verticalAlign=top;align=left;overflow=fill;html=1;whiteSpace=wrap;" vertex="1" parent="1">
          <mxGeometry x="520" y="40" width="220" height="170" as="geometry" />
        </mxCell>
        <mxCell id="KufS4bMbeVtTv9MZIm-f-2" value="&lt;p style=&quot;margin:0px;margin-top:4px;text-align:center;&quot;&gt;&lt;span style=&quot;color: rgb(0, 64, 133); background-color: transparent; text-align: left;&quot;&gt;StaticFileExtensions&lt;/span&gt;&lt;/p&gt;&lt;hr size=&quot;1&quot; style=&quot;border-style:solid;&quot;&gt;&lt;p style=&quot;margin:0px;margin-left:4px;&quot;&gt;&lt;span style=&quot;color: rgb(25, 25, 112); font-weight: bold;&quot;&gt;&lt;span style=&quot;background-color: transparent;&quot;&gt;UseStaticFiles&lt;/span&gt;(&lt;/span&gt;&lt;span style=&quot;background-color: transparent; color: rgb(25, 25, 112); font-weight: bold;&quot;&gt;):&amp;nbsp;&lt;/span&gt;&lt;span style=&quot;background-color: transparent; color: rgb(0, 64, 133);&quot;&gt;IApplicationBuilder&lt;/span&gt;&lt;/p&gt;&lt;p style=&quot;margin:0px;margin-left:4px;&quot;&gt;&lt;span style=&quot;background-color: transparent; color: rgb(0, 64, 133);&quot;&gt;&lt;br&gt;&lt;/span&gt;&lt;/p&gt;&lt;p style=&quot;margin:0px;margin-left:4px;&quot;&gt;&lt;span style=&quot;color: rgb(25, 25, 112); font-weight: bold;&quot;&gt;&lt;span style=&quot;background-color: transparent;&quot;&gt;UseStaticFiles&lt;/span&gt;(&lt;/span&gt;&lt;/p&gt;&lt;p style=&quot;margin:0px;margin-left:4px;&quot;&gt;&lt;span style=&quot;color: rgb(255, 0, 0);&quot;&gt;&lt;span style=&quot;white-space: pre;&quot;&gt;&#x9;&lt;/span&gt;string&lt;/span&gt; requestPath&lt;span style=&quot;color: rgb(25, 25, 112); font-weight: bold;&quot;&gt;&lt;/span&gt;&lt;/p&gt;&lt;p style=&quot;margin:0px;margin-left:4px;&quot;&gt;&lt;span style=&quot;color: rgb(25, 25, 112); font-weight: bold;&quot;&gt;):&amp;nbsp;&lt;/span&gt;&lt;span style=&quot;background-color: transparent; color: rgb(0, 64, 133);&quot;&gt;&lt;/span&gt;&lt;span style=&quot;color: rgb(0, 64, 133); background-color: transparent;&quot;&gt;IApplicationBuilder&lt;/span&gt;&lt;/p&gt;&lt;p style=&quot;margin:0px;margin-left:4px;&quot;&gt;&lt;span style=&quot;color: rgb(0, 64, 133); background-color: transparent;&quot;&gt;&lt;br&gt;&lt;/span&gt;&lt;/p&gt;&lt;p style=&quot;margin:0px;margin-left:4px;&quot;&gt;&lt;span style=&quot;color: rgb(25, 25, 112); font-weight: bold;&quot;&gt;&lt;span style=&quot;background-color: transparent;&quot;&gt;UseStaticFiles&lt;/span&gt;(&lt;/span&gt;&lt;span style=&quot;color: light-dark(rgb(0, 64, 133), rgb(142, 197, 255)); background-color: transparent; white-space: pre;&quot;&gt;&#x9;&lt;/span&gt;&lt;/p&gt;&lt;p style=&quot;margin:0px;margin-left:4px;&quot;&gt;&lt;span style=&quot;color: rgb(0, 64, 133);&quot;&gt;&lt;span style=&quot;white-space: pre;&quot;&gt;&#x9;&lt;/span&gt;StaticFileOptions&lt;/span&gt; options&lt;span style=&quot;color: rgb(25, 25, 112); font-weight: bold;&quot;&gt;&lt;/span&gt;&lt;/p&gt;&lt;p style=&quot;margin:0px;margin-left:4px;&quot;&gt;&lt;span style=&quot;color: rgb(25, 25, 112); font-weight: bold;&quot;&gt;):&amp;nbsp;&lt;/span&gt;&lt;span style=&quot;color: rgb(0, 64, 133); background-color: transparent;&quot;&gt;&lt;/span&gt;&lt;span style=&quot;color: rgb(0, 64, 133); background-color: transparent;&quot;&gt;IApplicationBuilder&lt;/span&gt;&lt;/p&gt;" style="verticalAlign=top;align=left;overflow=fill;html=1;whiteSpace=wrap;" vertex="1" parent="1">
          <mxGeometry x="520" y="240" width="220" height="170" as="geometry" />
        </mxCell>
      </root>
    </mxGraphModel>
  </diagram>
</mxfile>
